<svg width="7" height="12" viewBox="0 0 7 12" fill="none" xmlns="http://www.w3.org/2000/svg">
<path d="M4.2412 6.08225L0.584201 2.42525C0.511113 2.3587 0.452122 2.27815 0.410718 2.18839C0.369315 2.09863 0.346341 2.00147 0.343157 1.90267C0.339972 1.80387 0.356642 1.70543 0.392179 1.61319C0.427717 1.52095 0.481399 1.43677 0.550049 1.36565C0.618699 1.29452 0.700921 1.23789 0.791847 1.19911C0.882774 1.16033 0.980557 1.14018 1.07941 1.13987C1.17826 1.13955 1.27617 1.15907 1.36734 1.19727C1.45851 1.23547 1.5411 1.29157 1.6102 1.36225L1.6282 1.38025L5.8082 5.55925C5.94676 5.69784 6.0246 5.88578 6.0246 6.08175C6.0246 6.27772 5.94676 6.46567 5.8082 6.60425L1.6292 10.7833C1.56177 10.8531 1.48125 10.9089 1.39224 10.9476C1.30322 10.9862 1.20747 11.007 1.11043 11.0087C1.01339 11.0104 0.916976 10.9929 0.826685 10.9573C0.736395 10.9217 0.653999 10.8687 0.584201 10.8013C0.514404 10.7338 0.458572 10.6533 0.419893 10.5643C0.381214 10.4753 0.360446 10.3795 0.358775 10.2825C0.357103 10.1854 0.374561 10.089 0.410151 9.99874C0.445742 9.90845 0.498767 9.82605 0.566201 9.75625L0.584201 9.73825L4.2412 6.08225Z" fill="#6F1DF4" stroke="#6F1DF4" stroke-width="0.5"/>
</svg>
